{
  "accessors": [
    {
      "bufferView": 2,
      "componentType": 5126,
      "count": 27700,
      "max": [
        4344.55224609375,
        226.20611572265625,
        3199.232666015625
      ],
      "min": [
        -4344.55224609375,
        -4.100492477416992,
        -3199.232666015625
      ],
      "type": "VEC3"
    },
    {
      "bufferView": 2,
      "byteOffset": 332400,
      "componentType": 5126,
      "count": 27700,
      "max": [
        0.8041812181472778,
        1.0,
        0.7103880643844604
      ],
      "min": [
        -0.8951209783554077,
        0.4458235800266266,
        -0.7456753253936768
      ],
      "type": "VEC3"
    },
    {
      "bufferView": 1,
      "componentType": 5126,
      "count": 27700,
      "max": [
        1.0,
        1.0
      ],
      "min": [
        0.0,
        0.0
      ],
      "type": "VEC2"
    },
    {
      "bufferView": 0,
      "componentType": 5125,
      "count": 163386,
      "type": "SCALAR"
    },
    {
      "bufferView": 2,
      "byteOffset": 664800,
      "componentType": 5126,
      "count": 9642,
      "max": [
        4344.55224609375,
        321.2337951660156,
        3660.089111328125
      ],
      "min": [
        -4992.2900390625,
        -102.9937973022461,
        -2427.5244140625
      ],
      "type": "VEC3"
    },
    {
      "bufferView": 2,
      "byteOffset": 780504,
      "componentType": 5126,
      "count": 9642,
      "max": [
        1.0,
        0.8944272994995117,
        1.0
      ],
      "min": [
        -1.0,
        -0.9947453737258911,
        -1.0
      ],
      "type": "VEC3"
    },
    {
      "bufferView": 3,
      "componentType": 5126,
      "count": 9642,
      "max": [
        1.0,
        1.0,
        1.0,
        1.0
      ],
      "min": [
        0.0,
        0.0,
        0.0,
        1.0
      ],
      "type": "VEC4"
    },
    {
      "bufferView": 0,
      "byteOffset": 653544,
      "componentType": 5125,
      "count": 56328,
      "type": "SCALAR"
    }
  ],
  "asset": {
    "extras": {
      "author": "dionstra (https://sketchfab.com/dionstra)",
      "license": "CC-BY-NC-SA-4.0 (http://creativecommons.org/licenses/by-nc-sa/4.0/)",
      "source": "https://sketchfab.com/3d-models/hamilton-island-whitsundays-qld-australia-1067014b786c4d81bc9318fb88aa1233",
      "title": "Hamilton Island, Whitsundays, QLD Australia"
    },
    "generator": "Sketchfab-14.59.0",
    "version": "2.0"
  },
  "bufferViews": [
    {
      "buffer": 0,
      "byteLength": 878856,
      "name": "floatBufferViews",
      "target": 34963
    },
    {
      "buffer": 0,
      "byteLength": 221600,
      "byteOffset": 878856,
      "byteStride": 8,
      "name": "floatBufferViews",
      "target": 34962
    },
    {
      "buffer": 0,
      "byteLength": 896208,
      "byteOffset": 1100456,
      "byteStride": 12,
      "name": "floatBufferViews",
      "target": 34962
    },
    {
      "buffer": 0,
      "byteLength": 154272,
      "byteOffset": 1996664,
      "byteStride": 16,
      "name": "floatBufferViews",
      "target": 34962
    }
  ],
  "buffers": [
    {
      "byteLength": 2150936,
      "uri": "scene.bin"
    }
  ],
  "images": [
    {
      "uri": "textures/TerrainNodeMaterial_baseColor.jpeg"
    }
  ],
  "materials": [
    {
      "doubleSided": true,
      "name": "TerrainNodeMaterial",
      "pbrMetallicRoughness": {
        "baseColorTexture": {
          "index": 0
        },
        "metallicFactor": 0.15,
        "roughnessFactor": 0.85
      }
    },
    {
      "doubleSided": true,
      "name": "AdornmentsMaterial",
      "pbrMetallicRoughness": {
        "metallicFactor": 0.0
      }
    }
  ],
  "meshes": [
    {
      "name": "Object_0",
      "primitives": [
        {
          "attributes": {
            "NORMAL": 1,
            "POSITION": 0,
            "TEXCOORD_0": 2
          },
          "indices": 3,
          "material": 0,
          "mode": 4
        }
      ]
    },
    {
      "name": "Object_1",
      "primitives": [
        {
          "attributes": {
            "COLOR_0": 6,
            "NORMAL": 5,
            "POSITION": 4
          },
          "indices": 7,
          "material": 1,
          "mode": 4
        }
      ]
    }
  ],
  "nodes": [
    {
      "children": [
        1
      ],
      "matrix": [
        1.0,
        0.0,
        0.0,
        0.0,
        0.0,
        2.220446049250313e-16,
        -1.0,
        0.0,
        0.0,
        1.0,
        2.220446049250313e-16,
        0.0,
        0.0,
        0.0,
        0.0,
        1.0
      ],
      "name": "Sketchfab_model"
    },
    {
      "children": [
        2
      ],
      "name": "root"
    },
    {
      "children": [
        3,
        5
      ],
      "matrix": [
        1.0,
        0.0,
        0.0,
        0.0,
        0.0,
        2.220446049250313e-16,
        1.0,
        0.0,
        0.0,
        -1.0,
        2.220446049250313e-16,
        0.0,
        0.0,
        0.0,
        0.0,
        1.0
      ],
      "name": "GLTF_SceneRootNode"
    },
    {
      "children": [
        4
      ],
      "name": "TerrainNode_0"
    },
    {
      "mesh": 0,
      "name": "Object_4"
    },
    {
      "children": [
        6
      ],
      "name": "Adornments_1"
    },
    {
      "mesh": 1,
      "name": "Object_6"
    }
  ],
  "samplers": [
    {
      "magFilter": 9729,
      "minFilter": 9987,
      "wrapS": 10497,
      "wrapT": 10497
    }
  ],
  "scene": 0,
  "scenes": [
    {
      "name": "Sketchfab_Scene",
      "nodes": [
        0
      ]
    }
  ],
  "textures": [
    {
      "sampler": 0,
      "source": 0
    }
  ]
}
